<svg xmlns="http://www.w3.org/2000/svg" xmlns:xlink="http://www.w3.org/1999/xlink" width="500" zoomAndPan="magnify" viewBox="0 0 375 374.999991" height="500" preserveAspectRatio="xMidYMid meet" version="1.2"><defs><clipPath id="89e5569335"><path d="M 56.523438 136.578125 L 128.523438 136.578125 L 128.523438 238.578125 L 56.523438 238.578125 Z M 56.523438 136.578125 "/></clipPath></defs><g id="71a0b3fc0a"><g clip-rule="nonzero" clip-path="url(#89e5569335)"><path style=" stroke:none;fill-rule:nonzero;fill:#3972bf;fill-opacity:1;" d="M 93.550781 136.632812 L 93.230469 156.597656 C 103.148438 157.527344 103.351562 171.980469 93.476562 173.199219 L 92.542969 205.578125 C 92.332031 205.578125 92.554688 205.578125 92.34375 205.578125 L 91.410156 173.199219 C 81.523438 171.980469 81.75 157.527344 91.65625 156.597656 L 91.335938 136.632812 C 72.195312 136.921875 56.851562 144.851562 56.851562 176.285156 C 56.851562 208.316406 72.789062 238.679688 92.441406 238.679688 C 112.097656 238.679688 128.035156 208.316406 128.035156 176.285156 C 128.035156 144.851562 112.691406 136.921875 93.550781 136.632812 "/></g><path style=" stroke:none;fill-rule:nonzero;fill:#3972bf;fill-opacity:1;" d="M 93.011719 170.171875 C 99.996094 169.425781 98.859375 158.679688 91.707031 159.683594 C 84.957031 160.628906 86.050781 170.914062 93.011719 170.171875 "/><g style="fill:#3972bf;fill-opacity:1;"><g transform="translate(145.735411, 188.249988)"><path style="stroke:none" d="M 1.90625 0 L 1.90625 -21.328125 L 9.375 -21.328125 C 11.957031 -21.328125 13.914062 -20.832031 15.25 -19.84375 C 16.59375 -18.851562 17.265625 -17.398438 17.265625 -15.484375 C 17.265625 -14.441406 16.992188 -13.519531 16.453125 -12.71875 C 15.921875 -11.925781 15.175781 -11.34375 14.21875 -10.96875 C 15.3125 -10.695312 16.171875 -10.144531 16.796875 -9.3125 C 17.429688 -8.488281 17.75 -7.472656 17.75 -6.265625 C 17.75 -4.210938 17.09375 -2.660156 15.78125 -1.609375 C 14.476562 -0.554688 12.617188 -0.0195312 10.203125 0 Z M 6.296875 -9.28125 L 6.296875 -3.53125 L 10.0625 -3.53125 C 11.09375 -3.53125 11.898438 -3.773438 12.484375 -4.265625 C 13.066406 -4.765625 13.359375 -5.445312 13.359375 -6.3125 C 13.359375 -8.269531 12.347656 -9.257812 10.328125 -9.28125 Z M 6.296875 -12.390625 L 9.546875 -12.390625 C 11.765625 -12.429688 12.875 -13.316406 12.875 -15.046875 C 12.875 -16.015625 12.59375 -16.707031 12.03125 -17.125 C 11.46875 -17.550781 10.582031 -17.765625 9.375 -17.765625 L 6.296875 -17.765625 Z M 6.296875 -12.390625 "/></g><g transform="translate(164.880917, 188.249988)"><path style="stroke:none" d="M 6.296875 -3.53125 L 15.625 -3.53125 L 15.625 0 L 1.90625 0 L 1.90625 -21.328125 L 6.296875 -21.328125 Z M 6.296875 -3.53125 "/></g><g transform="translate(181.126034, 188.249988)"><path style="stroke:none" d="M 13.953125 -4.390625 L 6.234375 -4.390625 L 4.78125 0 L 0.109375 0 L 8.046875 -21.328125 L 12.109375 -21.328125 L 20.09375 0 L 15.421875 0 Z M 7.421875 -7.953125 L 12.765625 -7.953125 L 10.078125 -15.9375 Z M 7.421875 -7.953125 "/></g><g transform="translate(201.311579, 188.249988)"><path style="stroke:none" d="M 19.25 0 L 14.859375 0 L 6.296875 -14.03125 L 6.296875 0 L 1.90625 0 L 1.90625 -21.328125 L 6.296875 -21.328125 L 14.875 -7.265625 L 14.875 -21.328125 L 19.25 -21.328125 Z M 19.25 0 "/></g><g transform="translate(222.493218, 188.249988)"><path style="stroke:none" d="M 8.578125 -8.5625 L 6.296875 -6.09375 L 6.296875 0 L 1.90625 0 L 1.90625 -21.328125 L 6.296875 -21.328125 L 6.296875 -11.65625 L 8.234375 -14.3125 L 13.671875 -21.328125 L 19.078125 -21.328125 L 11.5 -11.84375 L 19.296875 0 L 14.0625 0 Z M 8.578125 -8.5625 "/></g><g transform="translate(241.536186, 188.249988)"><path style="stroke:none" d="M 9.859375 -7.421875 L 1.609375 -7.421875 L 1.609375 -10.84375 L 9.859375 -10.84375 Z M 9.859375 -7.421875 "/></g><g transform="translate(253.167045, 188.249988)"><path style="stroke:none" d="M 6.578125 0 L 2.1875 0 L 2.1875 -21.328125 L 6.578125 -21.328125 Z M 6.578125 0 "/></g><g transform="translate(261.912161, 188.249988)"><path style="stroke:none" d="M 17.953125 -17.765625 L 11.421875 -17.765625 L 11.421875 0 L 7.03125 0 L 7.03125 -17.765625 L 0.59375 -17.765625 L 0.59375 -21.328125 L 17.953125 -21.328125 Z M 17.953125 -17.765625 "/></g></g><g style="fill:#3972bf;fill-opacity:1;"><g transform="translate(145.735411, 210.749986)"><path style="stroke:none" d="M 9.71875 -5.09375 C 9.71875 -4.039062 9.53125 -3.117188 9.15625 -2.328125 C 8.78125 -1.535156 8.25 -0.925781 7.5625 -0.5 C 6.875 -0.0703125 6.082031 0.140625 5.1875 0.140625 C 4.300781 0.140625 3.507812 -0.0664062 2.8125 -0.484375 C 2.125 -0.910156 1.585938 -1.519531 1.203125 -2.3125 C 0.828125 -3.101562 0.632812 -4.007812 0.625 -5.03125 L 0.625 -5.5625 C 0.625 -6.613281 0.8125 -7.535156 1.1875 -8.328125 C 1.570312 -9.128906 2.109375 -9.742188 2.796875 -10.171875 C 3.492188 -10.597656 4.285156 -10.8125 5.171875 -10.8125 C 6.054688 -10.8125 6.84375 -10.597656 7.53125 -10.171875 C 8.226562 -9.742188 8.765625 -9.128906 9.140625 -8.328125 C 9.523438 -7.535156 9.71875 -6.613281 9.71875 -5.5625 Z M 7.484375 -5.578125 C 7.484375 -6.691406 7.28125 -7.539062 6.875 -8.125 C 6.476562 -8.707031 5.910156 -9 5.171875 -9 C 4.429688 -9 3.859375 -8.707031 3.453125 -8.125 C 3.054688 -7.550781 2.859375 -6.710938 2.859375 -5.609375 L 2.859375 -5.09375 C 2.859375 -4 3.054688 -3.148438 3.453125 -2.546875 C 3.859375 -1.953125 4.4375 -1.65625 5.1875 -1.65625 C 5.925781 -1.65625 6.492188 -1.941406 6.890625 -2.515625 C 7.285156 -3.097656 7.484375 -3.941406 7.484375 -5.046875 Z M 7.484375 -5.578125 "/></g><g transform="translate(156.091856, 210.749986)"><path style="stroke:none" d="M 9.625 0 L 7.421875 0 L 3.15625 -7.015625 L 3.15625 0 L 0.953125 0 L 0.953125 -10.671875 L 3.15625 -10.671875 L 7.4375 -3.640625 L 7.4375 -10.671875 L 9.625 -10.671875 Z M 9.625 0 "/></g><g transform="translate(166.682675, 210.749986)"><path style="stroke:none" d="M 3.15625 -1.765625 L 7.8125 -1.765625 L 7.8125 0 L 0.953125 0 L 0.953125 -10.671875 L 3.15625 -10.671875 Z M 3.15625 -1.765625 "/></g><g transform="translate(174.805233, 210.749986)"><path style="stroke:none" d="M 3.28125 0 L 1.09375 0 L 1.09375 -10.671875 L 3.28125 -10.671875 Z M 3.28125 0 "/></g><g transform="translate(179.177792, 210.749986)"><path style="stroke:none" d="M 9.625 0 L 7.421875 0 L 3.15625 -7.015625 L 3.15625 0 L 0.953125 0 L 0.953125 -10.671875 L 3.15625 -10.671875 L 7.4375 -3.640625 L 7.4375 -10.671875 L 9.625 -10.671875 Z M 9.625 0 "/></g><g transform="translate(189.768611, 210.749986)"><path style="stroke:none" d="M 7.375 -4.625 L 3.15625 -4.625 L 3.15625 -1.765625 L 8.09375 -1.765625 L 8.09375 0 L 0.953125 0 L 0.953125 -10.671875 L 8.09375 -10.671875 L 8.09375 -8.890625 L 3.15625 -8.890625 L 3.15625 -6.34375 L 7.375 -6.34375 Z M 7.375 -4.625 "/></g><g transform="translate(198.206111, 210.749986)"><path style="stroke:none" d=""/></g><g transform="translate(201.941462, 210.749986)"><path style="stroke:none" d="M 6.484375 -2.796875 C 6.484375 -3.210938 6.335938 -3.53125 6.046875 -3.75 C 5.753906 -3.976562 5.222656 -4.210938 4.453125 -4.453125 C 3.691406 -4.703125 3.09375 -4.945312 2.65625 -5.1875 C 1.4375 -5.84375 0.828125 -6.722656 0.828125 -7.828125 C 0.828125 -8.398438 0.988281 -8.910156 1.3125 -9.359375 C 1.644531 -9.816406 2.113281 -10.171875 2.71875 -10.421875 C 3.332031 -10.679688 4.015625 -10.8125 4.765625 -10.8125 C 5.523438 -10.8125 6.203125 -10.671875 6.796875 -10.390625 C 7.398438 -10.117188 7.863281 -9.726562 8.1875 -9.21875 C 8.519531 -8.71875 8.6875 -8.148438 8.6875 -7.515625 L 6.484375 -7.515625 C 6.484375 -8.003906 6.328125 -8.382812 6.015625 -8.65625 C 5.710938 -8.925781 5.285156 -9.0625 4.734375 -9.0625 C 4.191406 -9.0625 3.769531 -8.945312 3.46875 -8.71875 C 3.175781 -8.488281 3.03125 -8.191406 3.03125 -7.828125 C 3.03125 -7.472656 3.203125 -7.175781 3.546875 -6.9375 C 3.898438 -6.707031 4.414062 -6.492188 5.09375 -6.296875 C 6.34375 -5.921875 7.253906 -5.453125 7.828125 -4.890625 C 8.398438 -4.335938 8.6875 -3.644531 8.6875 -2.8125 C 8.6875 -1.882812 8.335938 -1.160156 7.640625 -0.640625 C 6.941406 -0.117188 6 0.140625 4.8125 0.140625 C 4 0.140625 3.253906 -0.00390625 2.578125 -0.296875 C 1.898438 -0.597656 1.382812 -1.007812 1.03125 -1.53125 C 0.675781 -2.0625 0.5 -2.671875 0.5 -3.359375 L 2.703125 -3.359375 C 2.703125 -2.179688 3.40625 -1.59375 4.8125 -1.59375 C 5.34375 -1.59375 5.753906 -1.695312 6.046875 -1.90625 C 6.335938 -2.125 6.484375 -2.421875 6.484375 -2.796875 Z M 6.484375 -2.796875 "/></g><g transform="translate(211.162653, 210.749986)"><path style="stroke:none" d="M 9.625 0 L 7.4375 0 L 7.4375 -4.578125 L 3.15625 -4.578125 L 3.15625 0 L 0.953125 0 L 0.953125 -10.671875 L 3.15625 -10.671875 L 3.15625 -6.34375 L 7.4375 -6.34375 L 7.4375 -10.671875 L 9.625 -10.671875 Z M 9.625 0 "/></g><g transform="translate(221.760797, 210.749986)"><path style="stroke:none" d="M 9.71875 -5.09375 C 9.71875 -4.039062 9.53125 -3.117188 9.15625 -2.328125 C 8.78125 -1.535156 8.25 -0.925781 7.5625 -0.5 C 6.875 -0.0703125 6.082031 0.140625 5.1875 0.140625 C 4.300781 0.140625 3.507812 -0.0664062 2.8125 -0.484375 C 2.125 -0.910156 1.585938 -1.519531 1.203125 -2.3125 C 0.828125 -3.101562 0.632812 -4.007812 0.625 -5.03125 L 0.625 -5.5625 C 0.625 -6.613281 0.8125 -7.535156 1.1875 -8.328125 C 1.570312 -9.128906 2.109375 -9.742188 2.796875 -10.171875 C 3.492188 -10.597656 4.285156 -10.8125 5.171875 -10.8125 C 6.054688 -10.8125 6.84375 -10.597656 7.53125 -10.171875 C 8.226562 -9.742188 8.765625 -9.128906 9.140625 -8.328125 C 9.523438 -7.535156 9.71875 -6.613281 9.71875 -5.5625 Z M 7.484375 -5.578125 C 7.484375 -6.691406 7.28125 -7.539062 6.875 -8.125 C 6.476562 -8.707031 5.910156 -9 5.171875 -9 C 4.429688 -9 3.859375 -8.707031 3.453125 -8.125 C 3.054688 -7.550781 2.859375 -6.710938 2.859375 -5.609375 L 2.859375 -5.09375 C 2.859375 -4 3.054688 -3.148438 3.453125 -2.546875 C 3.859375 -1.953125 4.4375 -1.65625 5.1875 -1.65625 C 5.925781 -1.65625 6.492188 -1.941406 6.890625 -2.515625 C 7.285156 -3.097656 7.484375 -3.941406 7.484375 -5.046875 Z M 7.484375 -5.578125 "/></g><g transform="translate(232.117241, 210.749986)"><path style="stroke:none" d="M 3.15625 -3.75 L 3.15625 0 L 0.953125 0 L 0.953125 -10.671875 L 5.109375 -10.671875 C 5.910156 -10.671875 6.613281 -10.519531 7.21875 -10.21875 C 7.832031 -9.925781 8.300781 -9.507812 8.625 -8.96875 C 8.957031 -8.4375 9.125 -7.828125 9.125 -7.140625 C 9.125 -6.085938 8.765625 -5.257812 8.046875 -4.65625 C 7.328125 -4.050781 6.335938 -3.75 5.078125 -3.75 Z M 3.15625 -5.53125 L 5.109375 -5.53125 C 5.691406 -5.53125 6.132812 -5.664062 6.4375 -5.9375 C 6.75 -6.21875 6.90625 -6.613281 6.90625 -7.125 C 6.90625 -7.644531 6.75 -8.066406 6.4375 -8.390625 C 6.132812 -8.710938 5.707031 -8.878906 5.15625 -8.890625 L 3.15625 -8.890625 Z M 3.15625 -5.53125 "/></g></g></g></svg>