<svg xmlns="http://www.w3.org/2000/svg" xmlns:xlink="http://www.w3.org/1999/xlink" width="815" zoomAndPan="magnify" viewBox="0 0 611.25 185.249993" height="247" preserveAspectRatio="xMidYMid meet" version="1.2"><defs><clipPath id="8e6be88408"><path d="M 1 25.746094 L 52 25.746094 L 52 66 L 1 66 Z M 1 25.746094 "/></clipPath></defs><g id="97b5a3c0f0"><path style=" stroke:none;fill-rule:evenodd;fill:#000000;fill-opacity:1;" d="M 53.449219 48.765625 C 71.117188 40 93.023438 46.347656 103.023438 63.519531 L 110.109375 75.683594 C 106.691406 88.050781 98.785156 99.210938 87.101562 106.546875 L 83.707031 100.714844 C 85.628906 98.53125 86.046875 95.285156 84.511719 92.644531 L 69.003906 66.019531 C 67.464844 63.378906 64.417969 62.113281 61.550781 62.675781 Z M 83.199219 108.78125 C 70.941406 115.144531 57.246094 116.351562 44.730469 113.105469 L 37.644531 100.9375 C 27.640625 83.769531 33.054688 61.785156 49.542969 51 L 57.644531 64.914062 C 55.722656 67.089844 55.304688 70.339844 56.839844 72.976562 L 72.347656 99.605469 C 73.882812 102.246094 76.933594 103.507812 79.796875 102.949219 Z M 113.171875 80.9375 L 122.003906 96.105469 C 132.382812 113.929688 126.167969 136.933594 108.1875 147.222656 C 90.207031 157.511719 67.003906 151.347656 56.625 133.527344 L 47.789062 118.355469 C 60.925781 120.757812 74.953125 118.71875 87.429688 111.578125 C 99.902344 104.4375 108.699219 93.414062 113.171875 80.9375 Z M 113.171875 80.9375 "/><g clip-rule="nonzero" clip-path="url(#8e6be88408)"><path style=" stroke:none;fill-rule:nonzero;fill:#000000;fill-opacity:1;" d="M 47.417969 47.351562 C 46.101562 45.089844 44.730469 42.882812 43.46875 40.863281 C 42.25 38.90625 41.125 37.097656 40.519531 36.058594 C 38.082031 31.871094 34.957031 30.210938 32.238281 30.332031 C 31.214844 30.378906 30.242188 30.671875 29.394531 31.171875 C 28.535156 31.671875 27.789062 32.394531 27.222656 33.28125 C 25.636719 35.761719 25.46875 39.585938 28.035156 43.992188 C 31.761719 50.386719 31.289062 56.171875 28.6875 60.136719 C 27.652344 61.714844 26.265625 63 24.660156 63.917969 C 23.054688 64.835938 21.242188 65.382812 19.347656 65.488281 C 14.589844 65.746094 9.324219 63.277344 5.640625 56.953125 C 4.929688 55.734375 4.34375 54.785156 3.722656 53.773438 C 2.800781 52.273438 1.8125 50.667969 1.144531 49.519531 L 5.050781 47.285156 C 6.039062 48.984375 6.824219 50.261719 7.558594 51.457031 C 8.382812 52.792969 9.152344 54.042969 9.546875 54.714844 C 12.257812 59.375 15.898438 61.207031 19.09375 61.03125 C 20.289062 60.96875 21.425781 60.628906 22.414062 60.0625 C 23.40625 59.496094 24.269531 58.6875 24.925781 57.691406 C 26.675781 55.027344 26.882812 50.957031 24.128906 46.226562 C 20.613281 40.1875 21.023438 34.65625 23.429688 30.890625 C 24.378906 29.402344 25.648438 28.191406 27.117188 27.332031 C 28.597656 26.46875 30.269531 25.957031 32.023438 25.878906 C 36.296875 25.683594 41.027344 27.984375 44.425781 33.824219 C 45.277344 35.28125 46.25 36.839844 47.296875 38.527344 C 48.710938 40.800781 50.253906 43.277344 51.324219 45.117188 Z M 47.417969 47.351562 "/></g><path style=" stroke:none;fill-rule:evenodd;fill:#000000;fill-opacity:1;" d="M 64.796875 72.71875 C 66.542969 71.722656 68.792969 72.320312 69.800781 74.050781 L 77.890625 87.941406 C 78.898438 89.671875 78.296875 91.90625 76.554688 92.902344 C 74.804688 93.902344 72.554688 93.304688 71.546875 91.574219 L 63.457031 77.679688 C 62.449219 75.953125 63.054688 73.71875 64.796875 72.71875 Z M 64.796875 72.71875 "/><g style="fill:#000000;fill-opacity:1;"><g transform="translate(157.110118, 127.120725)"><path style="stroke:none" d="M 8.5625 0 L 8.5625 -73.765625 L 32.671875 -73.765625 C 40.679688 -73.765625 46.703125 -72.109375 50.734375 -68.796875 C 54.765625 -65.484375 56.78125 -60.585938 56.78125 -54.109375 C 56.78125 -50.660156 55.800781 -47.609375 53.84375 -44.953125 C 51.882812 -42.304688 49.21875 -40.257812 45.84375 -38.8125 C 49.832031 -37.695312 52.984375 -35.578125 55.296875 -32.453125 C 57.609375 -29.328125 58.765625 -25.601562 58.765625 -21.28125 C 58.765625 -14.65625 56.617188 -9.453125 52.328125 -5.671875 C 48.035156 -1.890625 41.972656 0 34.140625 0 Z M 18.28125 -34.5 L 18.28125 -7.953125 L 34.34375 -7.953125 C 38.875 -7.953125 42.445312 -9.125 45.0625 -11.46875 C 47.675781 -13.820312 48.984375 -17.054688 48.984375 -21.171875 C 48.984375 -30.054688 44.15625 -34.5 34.5 -34.5 Z M 18.28125 -42.296875 L 32.984375 -42.296875 C 37.234375 -42.296875 40.632812 -43.359375 43.1875 -45.484375 C 45.738281 -47.617188 47.015625 -50.507812 47.015625 -54.15625 C 47.015625 -58.207031 45.832031 -61.148438 43.46875 -62.984375 C 41.101562 -64.828125 37.503906 -65.75 32.671875 -65.75 L 18.28125 -65.75 Z M 18.28125 -42.296875 "/></g></g><g style="fill:#000000;fill-opacity:1;"><g transform="translate(216.822597, 127.120725)"><path style="stroke:none" d="M 18.34375 -7.953125 L 53.296875 -7.953125 L 53.296875 0 L 8.5625 0 L 8.5625 -73.765625 L 18.34375 -73.765625 Z M 18.34375 -7.953125 "/></g></g><g style="fill:#000000;fill-opacity:1;"><g transform="translate(267.771207, 127.120725)"><path style="stroke:none" d="M 49.296875 -19.25 L 18.390625 -19.25 L 11.453125 0 L 1.421875 0 L 29.578125 -73.765625 L 38.09375 -73.765625 L 66.3125 0 L 56.328125 0 Z M 21.328125 -27.25 L 46.40625 -27.25 L 33.84375 -61.75 Z M 21.328125 -27.25 "/></g></g><g style="fill:#000000;fill-opacity:1;"><g transform="translate(330.573829, 127.120725)"><path style="stroke:none" d="M 65.25 0 L 55.46875 0 L 18.34375 -56.84375 L 18.34375 0 L 8.5625 0 L 8.5625 -73.765625 L 18.34375 -73.765625 L 55.578125 -16.671875 L 55.578125 -73.765625 L 65.25 -73.765625 Z M 65.25 0 "/></g></g><g style="fill:#000000;fill-opacity:1;"><g transform="translate(399.658075, 127.120725)"><path style="stroke:none" d="M 27.3125 -34.296875 L 18.28125 -24.921875 L 18.28125 0 L 8.5625 0 L 8.5625 -73.765625 L 18.28125 -73.765625 L 18.28125 -37.28125 L 51.0625 -73.765625 L 62.8125 -73.765625 L 33.796875 -41.1875 L 65.09375 0 L 53.453125 0 Z M 27.3125 -34.296875 "/></g></g><g style="fill:#000000;fill-opacity:1;"><g transform="translate(459.826461, 127.120725)"><path style="stroke:none" d="M 26.59375 -27.515625 L 1.875 -27.515625 L 1.875 -35.15625 L 26.59375 -35.15625 Z M 26.59375 -27.515625 "/></g></g><g style="fill:#000000;fill-opacity:1;"><g transform="translate(483.571641, 127.120725)"><path style="stroke:none" d="M 19 0 L 9.265625 0 L 9.265625 -73.765625 L 19 -73.765625 Z M 19 0 "/></g></g><g style="fill:#000000;fill-opacity:1;"><g transform="translate(506.911555, 127.120725)"><path style="stroke:none" d="M 59.53125 -65.75 L 35.8125 -65.75 L 35.8125 0 L 26.140625 0 L 26.140625 -65.75 L 2.484375 -65.75 L 2.484375 -73.765625 L 59.53125 -73.765625 Z M 59.53125 -65.75 "/></g></g></g></svg>