<svg xmlns="http://www.w3.org/2000/svg" xmlns:xlink="http://www.w3.org/1999/xlink" width="1920" zoomAndPan="magnify" viewBox="0 0 1440 809.999993" height="1080" preserveAspectRatio="xMidYMid meet" version="1.2"><defs><clipPath id="d38f55adef"><path d="M 429.40625 338.507812 L 481 338.507812 L 481 379 L 429.40625 379 Z M 429.40625 338.507812 "/></clipPath></defs><g id="129fb24cac"><rect x="0" width="1440" y="0" height="809.999993" style="fill:#ffffff;fill-opacity:1;stroke:none;"/><rect x="0" width="1440" y="0" height="809.999993" style="fill:#ffffff;fill-opacity:1;stroke:none;"/><path style=" stroke:none;fill-rule:evenodd;fill:#000000;fill-opacity:1;" d="M 482.210938 361.621094 C 499.949219 352.816406 521.945312 359.191406 531.988281 376.433594 L 539.101562 388.644531 C 535.667969 401.0625 527.730469 412.265625 516 419.632812 L 512.589844 413.78125 C 514.519531 411.585938 514.9375 408.328125 513.398438 405.675781 L 497.828125 378.941406 C 496.285156 376.292969 493.222656 375.023438 490.34375 375.585938 Z M 512.078125 421.878906 C 499.777344 428.265625 486.023438 429.476562 473.457031 426.21875 L 466.34375 414.003906 C 456.300781 396.761719 461.730469 374.691406 478.289062 363.863281 L 486.425781 377.832031 C 484.496094 380.019531 484.074219 383.28125 485.617188 385.929688 L 501.1875 412.664062 C 502.730469 415.316406 505.789062 416.582031 508.667969 416.023438 Z M 542.175781 393.921875 L 551.042969 409.152344 C 561.464844 427.046875 555.222656 450.144531 537.171875 460.472656 C 519.117188 470.804688 495.820312 464.617188 485.398438 446.722656 L 476.527344 431.492188 C 489.714844 433.902344 503.804688 431.855469 516.328125 424.6875 C 528.851562 417.519531 537.683594 406.449219 542.175781 393.921875 Z M 542.175781 393.921875 "/><g clip-rule="nonzero" clip-path="url(#d38f55adef)"><path style=" stroke:none;fill-rule:nonzero;fill:#000000;fill-opacity:1;" d="M 476.15625 360.199219 C 474.835938 357.929688 473.457031 355.710938 472.191406 353.683594 C 470.96875 351.71875 469.835938 349.902344 469.230469 348.859375 C 466.78125 344.65625 463.644531 342.988281 460.914062 343.113281 C 459.886719 343.160156 458.910156 343.453125 458.058594 343.953125 C 457.195312 344.457031 456.445312 345.179688 455.875 346.070312 C 454.285156 348.5625 454.117188 352.402344 456.695312 356.824219 C 460.433594 363.246094 459.960938 369.054688 457.347656 373.035156 C 456.308594 374.621094 454.917969 375.910156 453.304688 376.832031 C 451.695312 377.753906 449.875 378.304688 447.96875 378.410156 C 443.195312 378.667969 437.90625 376.1875 434.207031 369.839844 C 433.496094 368.617188 432.90625 367.660156 432.28125 366.648438 C 431.355469 365.144531 430.363281 363.527344 429.695312 362.378906 L 433.617188 360.132812 C 434.605469 361.839844 435.398438 363.121094 436.132812 364.320312 C 436.960938 365.664062 437.734375 366.917969 438.128906 367.59375 C 440.851562 372.269531 444.507812 374.109375 447.714844 373.933594 C 448.914062 373.871094 450.054688 373.53125 451.050781 372.960938 C 452.046875 372.394531 452.910156 371.582031 453.570312 370.582031 C 455.328125 367.90625 455.535156 363.820312 452.769531 359.070312 C 449.242188 353.007812 449.652344 347.449219 452.070312 343.671875 C 453.023438 342.179688 454.296875 340.964844 455.769531 340.097656 C 457.257812 339.230469 458.9375 338.71875 460.699219 338.640625 C 464.992188 338.445312 469.738281 340.753906 473.152344 346.617188 C 474.007812 348.082031 474.980469 349.644531 476.035156 351.339844 C 477.453125 353.625 479.003906 356.109375 480.078125 357.953125 Z M 476.15625 360.199219 "/></g><path style=" stroke:none;fill-rule:evenodd;fill:#000000;fill-opacity:1;" d="M 493.605469 385.671875 C 495.355469 384.667969 497.617188 385.269531 498.628906 387.007812 L 506.753906 400.953125 C 507.765625 402.691406 507.15625 404.933594 505.40625 405.933594 C 503.652344 406.9375 501.394531 406.339844 500.382812 404.601562 L 492.257812 390.652344 C 491.246094 388.914062 491.851562 386.675781 493.605469 385.671875 Z M 493.605469 385.671875 "/><g style="fill:#000000;fill-opacity:1;"><g transform="translate(576.153457, 440.811607)"><path style="stroke:none" d="M 6.609375 0 L 6.609375 -74.0625 L 32.546875 -74.0625 C 41.535156 -74.0625 48.351562 -72.335938 53 -68.890625 C 57.644531 -65.453125 59.96875 -60.410156 59.96875 -53.765625 C 59.96875 -50.140625 59.035156 -46.941406 57.171875 -44.171875 C 55.304688 -41.410156 52.710938 -39.382812 49.390625 -38.09375 C 53.191406 -37.144531 56.1875 -35.226562 58.375 -32.34375 C 60.5625 -29.46875 61.65625 -25.941406 61.65625 -21.765625 C 61.65625 -14.648438 59.378906 -9.257812 54.828125 -5.59375 C 50.285156 -1.9375 43.8125 -0.0703125 35.40625 0 Z M 21.875 -32.25 L 21.875 -12.265625 L 34.9375 -12.265625 C 38.539062 -12.265625 41.347656 -13.117188 43.359375 -14.828125 C 45.378906 -16.535156 46.390625 -18.898438 46.390625 -21.921875 C 46.390625 -28.703125 42.878906 -32.144531 35.859375 -32.25 Z M 21.875 -43.03125 L 33.171875 -43.03125 C 40.859375 -43.164062 44.703125 -46.234375 44.703125 -52.234375 C 44.703125 -55.597656 43.726562 -58.015625 41.78125 -59.484375 C 39.832031 -60.960938 36.753906 -61.703125 32.546875 -61.703125 L 21.875 -61.703125 Z M 21.875 -43.03125 "/></g></g><g style="fill:#000000;fill-opacity:1;"><g transform="translate(637.7425, 440.811607)"><path style="stroke:none" d="M 21.875 -12.265625 L 54.265625 -12.265625 L 54.265625 0 L 6.609375 0 L 6.609375 -74.0625 L 21.875 -74.0625 Z M 21.875 -12.265625 "/></g></g><g style="fill:#000000;fill-opacity:1;"><g transform="translate(689.25953, 440.811607)"><path style="stroke:none" d="M 48.421875 -15.265625 L 21.671875 -15.265625 L 16.578125 0 L 0.359375 0 L 27.921875 -74.0625 L 42.0625 -74.0625 L 69.78125 0 L 53.5625 0 Z M 25.78125 -27.625 L 44.296875 -27.625 L 35 -55.34375 Z M 25.78125 -27.625 "/></g></g><g style="fill:#000000;fill-opacity:1;"><g transform="translate(754.460253, 440.811607)"><path style="stroke:none" d="M 66.84375 0 L 51.578125 0 L 21.875 -48.734375 L 21.875 0 L 6.609375 0 L 6.609375 -74.0625 L 21.875 -74.0625 L 51.625 -25.234375 L 51.625 -74.0625 L 66.84375 -74.0625 Z M 66.84375 0 "/></g></g><g style="fill:#000000;fill-opacity:1;"><g transform="translate(823.120051, 440.811607)"><path style="stroke:none" d="M 29.8125 -29.703125 L 21.875 -21.15625 L 21.875 0 L 6.609375 0 L 6.609375 -74.0625 L 21.875 -74.0625 L 21.875 -40.484375 L 28.59375 -49.6875 L 47.453125 -74.0625 L 66.21875 -74.0625 L 39.921875 -41.15625 L 66.984375 0 L 48.828125 0 Z M 29.8125 -29.703125 "/></g></g><g style="fill:#000000;fill-opacity:1;"><g transform="translate(884.353012, 440.811607)"><path style="stroke:none" d="M 34.234375 -25.78125 L 5.59375 -25.78125 L 5.59375 -37.640625 L 34.234375 -37.640625 Z M 34.234375 -25.78125 "/></g></g><g style="fill:#000000;fill-opacity:1;"><g transform="translate(919.846385, 440.811607)"><path style="stroke:none" d="M 22.84375 0 L 7.578125 0 L 7.578125 -74.0625 L 22.84375 -74.0625 Z M 22.84375 0 "/></g></g><g style="fill:#000000;fill-opacity:1;"><g transform="translate(945.318614, 440.811607)"><path style="stroke:none" d="M 62.359375 -61.703125 L 39.671875 -61.703125 L 39.671875 0 L 24.421875 0 L 24.421875 -61.703125 L 2.03125 -61.703125 L 2.03125 -74.0625 L 62.359375 -74.0625 Z M 62.359375 -61.703125 "/></g></g></g></svg>