<svg xmlns="http://www.w3.org/2000/svg" xmlns:xlink="http://www.w3.org/1999/xlink" width="50" zoomAndPan="magnify" viewBox="0 0 37.5 37.499999" height="50" preserveAspectRatio="xMidYMid meet" version="1.2"><defs/><g id="32bbc5cbf7"><path style=" stroke:none;fill-rule:evenodd;fill:#000000;fill-opacity:1;" d="M 14.757812 6.296875 C 19.71875 3.835938 25.867188 5.617188 28.671875 10.4375 L 30.660156 13.851562 C 29.703125 17.324219 27.484375 20.453125 24.203125 22.511719 L 23.25 20.878906 C 23.789062 20.265625 23.90625 19.351562 23.476562 18.613281 L 19.125 11.140625 C 18.695312 10.398438 17.835938 10.042969 17.03125 10.203125 Z M 23.109375 23.140625 C 19.667969 24.925781 15.824219 25.265625 12.3125 24.355469 L 10.324219 20.941406 C 7.515625 16.121094 9.035156 9.953125 13.664062 6.925781 L 15.9375 10.828125 C 15.398438 11.441406 15.28125 12.351562 15.710938 13.09375 L 20.0625 20.566406 C 20.496094 21.304688 21.351562 21.660156 22.15625 21.503906 Z M 31.519531 15.324219 L 34 19.582031 C 36.914062 24.585938 35.167969 31.042969 30.121094 33.929688 C 25.074219 36.816406 18.5625 35.085938 15.648438 30.085938 L 13.171875 25.828125 C 16.855469 26.503906 20.796875 25.929688 24.296875 23.925781 C 27.796875 21.921875 30.265625 18.828125 31.519531 15.324219 Z M 31.519531 15.324219 "/><path style=" stroke:none;fill-rule:nonzero;fill:#000000;fill-opacity:1;" d="M 13.066406 5.898438 C 12.699219 5.265625 12.3125 4.644531 11.957031 4.078125 C 11.617188 3.53125 11.300781 3.023438 11.128906 2.730469 C 10.445312 1.554688 9.570312 1.089844 8.804688 1.125 C 8.519531 1.136719 8.246094 1.21875 8.007812 1.359375 C 7.765625 1.5 7.558594 1.703125 7.398438 1.953125 C 6.953125 2.648438 6.90625 3.722656 7.625 4.957031 C 8.671875 6.753906 8.539062 8.375 7.808594 9.488281 C 7.519531 9.929688 7.128906 10.292969 6.679688 10.550781 C 6.230469 10.808594 5.71875 10.960938 5.1875 10.988281 C 3.851562 11.0625 2.375 10.371094 1.339844 8.59375 C 1.140625 8.253906 0.976562 7.984375 0.804688 7.703125 C 0.542969 7.28125 0.265625 6.832031 0.078125 6.507812 L 1.175781 5.882812 C 1.453125 6.359375 1.675781 6.71875 1.878906 7.050781 C 2.109375 7.425781 2.328125 7.777344 2.4375 7.96875 C 3.199219 9.273438 4.21875 9.789062 5.117188 9.738281 C 5.453125 9.722656 5.769531 9.625 6.050781 9.46875 C 6.328125 9.308594 6.570312 9.082031 6.753906 8.800781 C 7.246094 8.054688 7.304688 6.914062 6.53125 5.585938 C 5.542969 3.890625 5.660156 2.335938 6.332031 1.28125 C 6.601562 0.863281 6.957031 0.523438 7.367188 0.28125 C 7.785156 0.0390625 8.253906 -0.105469 8.746094 -0.125 C 9.945312 -0.179688 11.273438 0.464844 12.226562 2.101562 C 12.464844 2.511719 12.738281 2.949219 13.03125 3.421875 C 13.429688 4.0625 13.863281 4.757812 14.164062 5.273438 Z M 13.066406 5.898438 "/><path style=" stroke:none;fill-rule:evenodd;fill:#000000;fill-opacity:1;" d="M 17.945312 13.019531 C 18.433594 12.738281 19.066406 12.90625 19.347656 13.394531 L 21.621094 17.292969 C 21.902344 17.777344 21.734375 18.402344 21.242188 18.683594 C 20.753906 18.964844 20.121094 18.796875 19.839844 18.3125 L 17.566406 14.414062 C 17.285156 13.925781 17.453125 13.300781 17.945312 13.019531 Z M 17.945312 13.019531 "/><g style="fill:#000000;fill-opacity:1;"><g transform="translate(23.479898, 27.952305)"><path style="stroke:none" d="M 0.359375 0 L 0.21875 0 L 0.21875 -1.40625 L 0.453125 -1.40625 L 0.890625 -0.21875 L 0.90625 -0.21875 L 1.328125 -1.40625 L 1.5625 -1.40625 L 1.5625 0 L 1.40625 0 L 1.40625 -1.140625 L 1.390625 -1.15625 L 0.96875 0 L 0.8125 0 L 0.390625 -1.15625 L 0.359375 -1.140625 Z M 0.359375 0 "/></g><g transform="translate(25.263733, 27.952305)"><path style="stroke:none" d="M 0.609375 0.015625 C 0.503906 0.015625 0.414062 -0.00390625 0.34375 -0.046875 C 0.269531 -0.0859375 0.210938 -0.148438 0.171875 -0.234375 C 0.128906 -0.316406 0.109375 -0.414062 0.109375 -0.53125 C 0.109375 -0.644531 0.128906 -0.742188 0.171875 -0.828125 C 0.210938 -0.910156 0.269531 -0.972656 0.34375 -1.015625 C 0.414062 -1.054688 0.503906 -1.078125 0.609375 -1.078125 C 0.710938 -1.078125 0.800781 -1.054688 0.875 -1.015625 C 0.945312 -0.972656 1 -0.910156 1.03125 -0.828125 C 1.070312 -0.742188 1.09375 -0.644531 1.09375 -0.53125 C 1.09375 -0.414062 1.070312 -0.316406 1.03125 -0.234375 C 1 -0.148438 0.945312 -0.0859375 0.875 -0.046875 C 0.800781 -0.00390625 0.710938 0.015625 0.609375 0.015625 Z M 0.609375 -0.125 C 0.710938 -0.125 0.789062 -0.15625 0.84375 -0.21875 C 0.90625 -0.28125 0.9375 -0.382812 0.9375 -0.53125 C 0.9375 -0.664062 0.90625 -0.765625 0.84375 -0.828125 C 0.789062 -0.898438 0.710938 -0.9375 0.609375 -0.9375 C 0.503906 -0.9375 0.421875 -0.898438 0.359375 -0.828125 C 0.304688 -0.765625 0.28125 -0.664062 0.28125 -0.53125 C 0.28125 -0.382812 0.304688 -0.28125 0.359375 -0.21875 C 0.421875 -0.15625 0.503906 -0.125 0.609375 -0.125 Z M 0.609375 -0.125 "/></g><g transform="translate(26.483795, 27.952305)"><path style="stroke:none" d="M 0.53125 0.015625 C 0.40625 0.015625 0.3125 -0.015625 0.25 -0.078125 C 0.195312 -0.140625 0.171875 -0.234375 0.171875 -0.359375 L 0.171875 -1.0625 L 0.328125 -1.0625 L 0.328125 -0.359375 C 0.328125 -0.191406 0.398438 -0.109375 0.546875 -0.109375 C 0.648438 -0.109375 0.726562 -0.140625 0.78125 -0.203125 C 0.832031 -0.273438 0.859375 -0.378906 0.859375 -0.515625 L 0.859375 -1.0625 L 1.015625 -1.0625 L 1.015625 0 L 0.875 0 L 0.875 -0.171875 L 0.859375 -0.171875 C 0.816406 -0.109375 0.769531 -0.0625 0.71875 -0.03125 C 0.664062 0 0.601562 0.015625 0.53125 0.015625 Z M 0.53125 0.015625 "/></g><g transform="translate(27.691329, 27.952305)"><path style="stroke:none" d="M 0.484375 0.015625 C 0.421875 0.015625 0.359375 0.0078125 0.296875 0 C 0.242188 -0.0195312 0.195312 -0.046875 0.15625 -0.078125 C 0.113281 -0.109375 0.0859375 -0.144531 0.078125 -0.1875 L 0.171875 -0.28125 L 0.1875 -0.28125 C 0.21875 -0.226562 0.253906 -0.1875 0.296875 -0.15625 C 0.347656 -0.132812 0.410156 -0.125 0.484375 -0.125 C 0.554688 -0.125 0.613281 -0.140625 0.65625 -0.171875 C 0.695312 -0.203125 0.71875 -0.242188 0.71875 -0.296875 C 0.71875 -0.335938 0.707031 -0.367188 0.6875 -0.390625 C 0.664062 -0.421875 0.625 -0.441406 0.5625 -0.453125 L 0.390625 -0.5 C 0.296875 -0.519531 0.222656 -0.554688 0.171875 -0.609375 C 0.128906 -0.660156 0.109375 -0.722656 0.109375 -0.796875 C 0.109375 -0.859375 0.125 -0.910156 0.15625 -0.953125 C 0.1875 -0.992188 0.226562 -1.023438 0.28125 -1.046875 C 0.34375 -1.066406 0.410156 -1.078125 0.484375 -1.078125 C 0.578125 -1.078125 0.648438 -1.0625 0.703125 -1.03125 C 0.765625 -1.007812 0.8125 -0.972656 0.84375 -0.921875 L 0.75 -0.84375 L 0.734375 -0.84375 C 0.703125 -0.875 0.664062 -0.898438 0.625 -0.921875 C 0.582031 -0.941406 0.535156 -0.953125 0.484375 -0.953125 C 0.410156 -0.953125 0.351562 -0.9375 0.3125 -0.90625 C 0.28125 -0.882812 0.265625 -0.847656 0.265625 -0.796875 C 0.265625 -0.753906 0.273438 -0.71875 0.296875 -0.6875 C 0.328125 -0.664062 0.375 -0.648438 0.4375 -0.640625 L 0.625 -0.59375 C 0.707031 -0.570312 0.769531 -0.535156 0.8125 -0.484375 C 0.851562 -0.429688 0.875 -0.367188 0.875 -0.296875 C 0.875 -0.234375 0.859375 -0.175781 0.828125 -0.125 C 0.804688 -0.0820312 0.765625 -0.046875 0.703125 -0.015625 C 0.640625 0.00390625 0.566406 0.015625 0.484375 0.015625 Z M 0.484375 0.015625 "/></g><g transform="translate(28.674317, 27.952305)"><path style="stroke:none" d="M 1.015625 -0.5 L 0.28125 -0.5 C 0.28125 -0.363281 0.304688 -0.265625 0.359375 -0.203125 C 0.421875 -0.148438 0.503906 -0.125 0.609375 -0.125 C 0.679688 -0.125 0.738281 -0.132812 0.78125 -0.15625 C 0.832031 -0.1875 0.875 -0.226562 0.90625 -0.28125 L 0.921875 -0.28125 L 1.03125 -0.234375 C 1 -0.148438 0.945312 -0.0859375 0.875 -0.046875 C 0.8125 -0.00390625 0.722656 0.015625 0.609375 0.015625 C 0.503906 0.015625 0.414062 0 0.34375 -0.03125 C 0.269531 -0.0703125 0.210938 -0.132812 0.171875 -0.21875 C 0.128906 -0.300781 0.109375 -0.40625 0.109375 -0.53125 C 0.109375 -0.644531 0.128906 -0.742188 0.171875 -0.828125 C 0.222656 -0.910156 0.28125 -0.972656 0.34375 -1.015625 C 0.414062 -1.054688 0.5 -1.078125 0.59375 -1.078125 C 0.726562 -1.078125 0.832031 -1.035156 0.90625 -0.953125 C 0.988281 -0.878906 1.03125 -0.769531 1.03125 -0.625 C 1.03125 -0.5625 1.03125 -0.519531 1.03125 -0.5 Z M 0.875 -0.625 C 0.875 -0.738281 0.847656 -0.820312 0.796875 -0.875 C 0.753906 -0.925781 0.6875 -0.953125 0.59375 -0.953125 C 0.507812 -0.953125 0.4375 -0.925781 0.375 -0.875 C 0.320312 -0.820312 0.289062 -0.738281 0.28125 -0.625 Z M 0.875 -0.625 "/></g></g></g></svg>